Format : AVI
Format/Info : Audio Video Interleave
File size : 1.23 GiB
Duration : 1h 45mn
Overall bit rate : 1 679 Kbps
Writing library : VirtualDub build 32839/release

Video
ID : 0
Format : MPEG-4 Visual
Format profile : Advanced Simple@L5
Format settings, BVOP : Yes
Format settings, QPel : No
Format settings, GMC : No warppoints
Format settings, Matrix : Custom
Codec ID : XVID
Codec ID/Hint : XviD
Duration : 1h 45mn
Bit rate : 1 542 Kbps
Width : 640 pixels
Height : 352 pixels
Display aspect ratio : 16:9
Frame rate : 23.976 fps
Color space : YUV
Chroma subsampling : 4:2:0
Bit depth : 8 bits
Scan type : Progressive
Bits/(Pixel*Frame) : 0.285
Stream size : 1.13 GiB (92%)
Writing library : XviD 1.2.1 (UTC 2008-12-04)

Audio
ID : 1
Format : MPEG Audio
Format version : Version 1
Format profile : Layer 3
Mode : Joint stereo
Mode extension : MS Stereo
Codec ID : 55
Codec ID/Hint : MP3
Duration : 1h 45mn
Bit rate mode : Constant
Bit rate : 128 Kbps
Channel(s) : 2 channels
Sampling rate : 44.1 KHz
Stream size : 96.3 MiB (8%)
Alignment : Split accross interleaves
Interleave, duration : 42 ms (1.00 video frame)
Interleave, preload duration : 500 ms
Writing library : LAME3.98r
Encoding settings : -m j -V 4 -q 2 -lowpass 17 -b 128




 
http://www.imdb.com/title/tt1787759/







Users: 2.4/10 (1,224 votes) 14 reviews | Critics: 19 reviews Metascore: 49/100 (based on 11 reviews from Metacritic.com)

Madea jumps into action when her niece, Shirley, receives distressing news about her health. All Shirley wants is to gather her three adult children around her and share the news as a family... See full summary »
Director:
Tyler Perry
Writer:
Tyler Perry (screenplay)
Stars:
Tyler Perry, Loretta Devine and Bow Wow
















SOURCE ...............: Madeas Big Happy Family 2011 Cam LKRG .......... Thanks



Audio Source .........: IMAGINE ,,,Thanks


Re up from yesterday corrupt file ...Totally done the video again with a different set of filters .This time we should be ok .............Enjoy !


Greetz to Imagine ,Flawl3ss,DiLLoN,BDK,NOiR,TOXiCiNK,THC,Ez,Rx,Boobyblue,TaRiQ786,LKRG